External Loads File
version=1
nRows=93
nColumns=13
Range=5.000000e-03-10 seconds
endheader
time 	forceRightX 	forceRightY 	forceRightZ 	pointRightX 	pointRightY 	pointRightZ 	forceLeftX 	forceLeftY 	forceLeftZ 	pointLeftX 	pointLeftY 	pointLeftZ 		
2.505000 -19.326988 180.145300 -0.000000 0.259054 0.486536 -0.101025 277.373541 970.596190 -0.000000 0.256522 0.147971 -0.339920
2.510000 -14.164554 197.025485 -0.000000 0.264323 0.488045 -0.101108 268.829466 884.345857 -0.000000 0.251709 0.146876 -0.339844
2.515000 -10.035071 212.505875 -0.000000 0.269532 0.489348 -0.101101 255.898048 793.628431 -0.000000 0.246965 0.145970 -0.339779
2.520000 -6.765521 226.792855 -0.000000 0.274850 0.490458 -0.101184 239.449998 699.607216 -0.000000 0.242238 0.145134 -0.339794
2.525000 -4.576550 240.260653 -0.000000 0.279756 0.491187 -0.101217 219.125204 604.369117 -0.000000 0.237576 0.144553 -0.339796
2.530000 -2.988065 253.435440 -0.000000 0.284646 0.491790 -0.101031 196.790438 509.530461 -0.000000 0.232929 0.144254 -0.339888
2.535000 -1.569015 266.922737 -0.000000 0.289665 0.491870 -0.101063 173.752185 417.012455 -0.000000 0.228268 0.144195 -0.339982
2.540000 0.128627 281.386806 -0.000000 0.294582 0.491845 -0.101017 151.174671 328.748365 -0.000000 0.223121 0.144423 -0.339414
2.545000 2.276414 297.524946 -0.000000 0.299635 0.491252 -0.100853 129.868754 246.587396 -0.000000 0.218085 0.145189 -0.339326
2.550000 4.999868 316.022093 -0.000000 0.304310 0.490683 -0.100874 110.833318 171.919452 -0.000000 0.212732 0.146523 -0.339302
2.555000 9.028891 337.472454 -0.000000 0.308934 0.489612 -0.100861 95.310833 105.434717 -0.000000 0.206897 0.148241 -0.339264
2.560000 14.343158 362.335691 -0.000000 0.313383 0.488335 -0.100873 83.762176 47.660163 -0.000000 0.200696 0.150580 -0.339131
2.565000 21.243863 390.843149 -0.000000 0.317754 0.486698 -0.100791 76.397144 -1.340567 -0.000000 0.194112 0.153553 -0.339006
2.570000 29.447918 422.958044 -0.000000 0.322046 0.484739 -0.100763 72.910227 -41.571916 -0.000000 0.187341 0.156889 -0.338880
2.575000 38.905581 458.307632 -0.000000 0.326157 0.482395 -0.100867 72.599772 -73.124391 -0.000000 0.180297 0.160715 -0.338590
2.580000 48.879147 496.240162 -0.000000 0.330349 0.479764 -0.100681 74.531725 -95.887333 -0.000000 0.173511 0.164775 -0.338369
2.585000 58.567430 535.822176 -0.000000 0.334287 0.476727 -0.100429 77.690546 -109.649953 -0.000000 0.166956 0.168951 -0.338173
2.590000 67.920738 575.825685 -0.000000 0.338547 0.473313 -0.100256 81.026698 -114.347317 -0.000000 0.160801 0.173104 -0.337859
2.595000 75.411467 615.097268 -0.000000 0.342534 0.469522 -0.100007 84.175369 -110.018890 -0.000000 0.155050 0.176993 -0.337617
2.600000 80.950480 652.346777 -0.000000 0.346426 0.465705 -0.099839 86.979217 -97.542193 -0.000000 0.149685 0.181041 -0.337509
2.605000 84.460230 686.414486 -0.000000 0.350211 0.461681 -0.099784 89.701184 -78.611656 -0.000000 0.144513 0.185001 -0.337367
2.610000 86.250315 716.314822 -0.000000 0.354027 0.457511 -0.099981 92.756773 -55.726447 -0.000000 0.139585 0.189227 -0.337368
2.615000 86.487895 741.341576 -0.000000 0.357796 0.453152 -0.100749 96.556597 -31.809926 -0.000000 0.134740 0.193740 -0.337380
2.620000 85.860822 761.014574 -0.000000 0.361597 0.448271 -0.101291 101.284714 -9.862793 -0.000000 0.129947 0.198514 -0.337349
2.625000 83.695018 775.311155 -0.000000 0.365371 0.443229 -0.101588 106.820912 7.679974 -0.000000 0.125410 0.203597 -0.337335
2.630000 81.897041 784.200590 -0.000000 0.369470 0.437287 -0.102124 112.648368 18.674907 -0.000000 0.121135 0.208857 -0.337406
2.635000 76.785082 788.465405 -0.000000 0.372929 0.431813 -0.102486 117.809936 22.542891 -0.000000 0.117240 0.214225 -0.337421
2.640000 71.116093 788.405453 -0.000000 0.376295 0.425996 -0.102618 121.314965 18.564121 -0.000000 0.113736 0.219720 -0.337449
2.645000 64.982177 784.771641 -0.000000 0.379538 0.419970 -0.102598 122.146799 7.058492 -0.000000 0.110614 0.225291 -0.337432
2.650000 58.556905 778.390273 -0.000000 0.382712 0.413731 -0.102586 119.494802 -11.123748 -0.000000 0.107902 0.230828 -0.337363
2.655000 52.232988 770.065101 -0.000000 0.385725 0.407324 -0.102477 112.928474 -34.731852 -0.000000 0.105559 0.236454 -0.337295
2.660000 46.521327 760.535227 -0.000000 0.388527 0.400645 -0.102247 102.470094 -62.184151 -0.000000 0.103564 0.242211 -0.337133
2.665000 40.904444 750.540933 -0.000000 0.391104 0.393887 -0.102014 88.694418 -91.536842 -0.000000 0.101882 0.247940 -0.336971
2.670000 36.202647 740.674044 -0.000000 0.393511 0.386835 -0.101748 72.440167 -120.978146 -0.000000 0.100503 0.253739 -0.336767
2.675000 31.981127 731.482978 -0.000000 0.395740 0.379772 -0.101447 54.880831 -148.686714 -0.000000 0.099321 0.259606 -0.336592
2.680000 28.701119 723.301950 -0.000000 0.397700 0.372579 -0.101159 37.076465 -173.232248 -0.000000 0.098441 0.265680 -0.336630
2.685000 25.436657 716.345498 -0.000000 0.399380 0.365327 -0.100899 20.322590 -193.505704 -0.000000 0.098259 0.271657 -0.337711
2.690000 24.207326 710.610547 -0.000000 0.400729 0.357928 -0.100500 4.997944 -208.929054 -0.000000 0.097223 0.277893 -0.336654
2.695000 23.385182 706.227720 -0.000000 0.401839 0.350460 -0.100202 -7.769430 -219.196328 -0.000000 0.096918 0.284165 -0.336673
2.700000 23.190965 703.332960 -0.000000 0.402605 0.342999 -0.099786 -17.605497 -224.387971 -0.000000 0.096825 0.290559 -0.336785
2.705000 23.597596 702.166740 -0.000000 0.403101 0.335429 -0.100015 -24.369708 -224.811682 -0.000000 0.096926 0.296996 -0.336862
2.710000 24.008984 703.086282 -0.000000 0.403318 0.327901 -0.099585 -27.998022 -220.979501 -0.000000 0.097306 0.303430 -0.336834
2.715000 25.114758 706.467350 -0.000000 0.403234 0.320290 -0.099562 -29.007178 -213.509796 -0.000000 0.097912 0.310063 -0.336765
2.720000 26.512673 712.698348 -0.000000 0.402972 0.312690 -0.099413 -27.661803 -203.202551 -0.000000 0.098770 0.316808 -0.336848
2.725000 27.922774 722.068857 -0.000000 0.402251 0.305042 -0.098580 -24.335719 -190.942774 -0.000000 0.099923 0.323466 -0.336935
2.730000 30.077506 734.732167 -0.000000 0.401129 0.297324 -0.099701 -19.662952 -177.560377 -0.000000 0.101376 0.330301 -0.336878
2.735000 31.940579 750.860600 -0.000000 0.399822 0.289732 -0.099563 -13.757191 -163.826086 -0.000000 0.103082 0.337080 -0.336841
2.740000 33.865002 770.555534 -0.000000 0.398252 0.282150 -0.099402 -7.054428 -150.319022 -0.000000 0.105165 0.343771 -0.336869
2.745000 37.186818 793.851088 -0.000000 0.396364 0.274594 -0.099314 -0.144945 -137.484632 -0.000000 0.107489 0.350840 -0.336919
2.750000 39.521262 820.920415 -0.000000 0.394142 0.267108 -0.099186 7.015976 -125.635103 -0.000000 0.110185 0.357243 -0.337032
2.755000 43.092505 851.708400 -0.000000 0.391613 0.259758 -0.099146 13.641352 -114.949640 -0.000000 0.113161 0.363827 -0.337058
2.760000 47.797783 886.276727 -0.000000 0.388827 0.252446 -0.099054 19.390999 -105.545847 -0.000000 0.116402 0.370387 -0.337164
2.765000 53.234053 924.707514 -0.000000 0.385692 0.245329 -0.098997 23.978695 -97.495128 -0.000000 0.120014 0.376772 -0.337255
2.770000 60.372644 966.937896 -0.000000 0.382371 0.238144 -0.099004 27.024824 -90.882772 -0.000000 0.123849 0.383154 -0.337311
2.775000 68.832328 1012.841747 -0.000000 0.378698 0.231156 -0.098963 28.385631 -85.738636 -0.000000 0.128046 0.389435 -0.337362
2.780000 78.662387 1062.130921 -0.000000 0.374798 0.224283 -0.098991 27.958261 -82.053371 -0.000000 0.132645 0.395535 -0.337535
2.785000 89.032709 1114.517470 -0.000000 0.370720 0.217638 -0.099053 25.788750 -79.694840 -0.000000 0.137428 0.401468 -0.337627
2.790000 100.689677 1169.541916 -0.000000 0.366256 0.211222 -0.099159 21.892167 -78.435350 -0.000000 0.142592 0.407183 -0.337916
2.795000 113.943543 1226.516218 -0.000000 0.361478 0.204934 -0.099202 16.442027 -77.914476 -0.000000 0.148031 0.412747 -0.338165
2.800000 128.027765 1284.404522 -0.000000 0.356588 0.198823 -0.099272 9.803456 -77.703726 -0.000000 0.153699 0.418060 -0.338471
2.805000 143.769072 1341.669820 -0.000000 0.351399 0.192966 -0.099272 2.323958 -77.380744 -0.000000 0.159521 0.423240 -0.338662
2.810000 161.454268 1396.670176 -0.000000 0.345997 0.187397 -0.099181 -5.591672 -76.480921 -0.000000 0.165640 0.428258 -0.339002
2.815000 180.742548 1447.787467 -0.000000 0.340385 0.182016 -0.099144 -13.535548 -74.494884 -0.000000 0.171901 0.433059 -0.339281
2.820000 201.694979 1493.346852 -0.000000 0.334529 0.176969 -0.099091 -21.168737 -70.876871 -0.000000 0.178425 0.437617 -0.339334
2.825000 223.065752 1531.834859 -0.000000 0.328588 0.172178 -0.098998 -28.113357 -65.096581 -0.000000 0.185018 0.442029 -0.339334
2.830000 245.545236 1561.433501 -0.000000 0.322426 0.167711 -0.098853 -34.065644 -56.659834 -0.000000 0.191842 0.446301 -0.339491
2.835000 267.268142 1580.689135 -0.000000 0.316135 0.163571 -0.098604 -38.594055 -45.282386 -0.000000 0.198651 0.450530 -0.339593
2.840000 286.440108 1588.254686 -0.000000 0.309893 0.159711 -0.098376 -41.329813 -30.926827 -0.000000 0.205458 0.454505 -0.339668
2.845000 305.766538 1582.089312 -0.000000 0.303597 0.156151 -0.098144 -42.087937 -13.711936 -0.000000 0.212847 0.458290 -0.340673
2.850000 317.773411 1562.240029 -0.000000 0.297340 0.152955 -0.097955 -40.723253 5.693963 -0.000000 0.219482 0.461776 -0.340139
2.855000 326.894077 1526.785464 -0.000000 0.291034 0.149996 -0.097641 -37.442186 26.703278 -0.000000 0.226240 0.465031 -0.340096
2.860000 332.361674 1475.219483 -0.000000 0.284695 0.147375 -0.097223 -32.580588 48.454404 -0.000000 0.233081 0.468012 -0.340163
2.865000 332.856939 1407.774253 -0.000000 0.278416 0.145159 -0.096907 -26.712062 70.091941 -0.000000 0.239815 0.470964 -0.340278
2.870000 329.534262 1324.774008 -0.000000 0.272044 0.143397 -0.096655 -20.401383 90.964866 -0.000000 0.246591 0.473817 -0.340354
2.875000 321.024697 1227.807575 -0.000000 0.265766 0.142021 -0.096293 -14.317469 110.547669 -0.000000 0.253222 0.476623 -0.340404
2.880000 308.135927 1118.553808 -0.000000 0.259511 0.141134 -0.096047 -8.930989 128.490070 -0.000000 0.259761 0.478989 -0.340423
2.885000 291.948838 999.097606 -0.000000 0.253197 0.140589 -0.095664 -4.520173 144.585615 -0.000000 0.266298 0.480965 -0.340526
2.890000 272.023785 872.350987 -0.000000 0.247084 0.140528 -0.095523 -1.430972 158.770062 -0.000000 0.272734 0.482700 -0.340562
2.895000 249.665707 741.052967 -0.000000 0.241094 0.140891 -0.095351 0.325186 171.099180 -0.000000 0.279091 0.483990 -0.340725
2.900000 226.592794 608.061255 -0.000000 0.235019 0.141782 -0.095388 0.988472 181.718579 -0.000000 0.285452 0.484866 -0.340924
2.905000 203.893169 476.662760 -0.000000 0.228877 0.143290 -0.095481 0.730025 190.887608 -0.000000 0.291809 0.485413 -0.341072
2.910000 182.673799 350.229664 -0.000000 0.222584 0.145449 -0.095572 -0.413016 198.983008 -0.000000 0.297759 0.485443 -0.341371
2.915000 164.787660 231.479369 -0.000000 0.215838 0.148216 -0.095842 -2.157313 206.492744 -0.000000 0.303276 0.485127 -0.341598
2.920000 151.645774 122.328049 -0.000000 0.208499 0.151691 -0.096244 -3.983077 214.064176 -0.000000 0.308861 0.484383 -0.341922
2.925000 143.269864 24.407466 -0.000000 0.200701 0.155476 -0.096729 -6.021220 222.521384 -0.000000 0.314295 0.483174 -0.342249
2.930000 139.274021 -61.652851 -0.000000 0.192489 0.160260 -0.097114 -7.915021 232.789126 -0.000000 0.319612 0.481257 -0.342995
2.935000 138.551653 -135.077459 -0.000000 0.184367 0.165851 -0.097653 -9.963249 245.677749 -0.000000 0.324603 0.478911 -0.343458
2.940000 139.957793 -195.051057 -0.000000 0.176599 0.171047 -0.098123 -12.510668 261.698286 -0.000000 0.329193 0.476024 -0.343925
2.945000 142.136233 -240.903546 -0.000000 0.169693 0.176182 -0.098562 -15.551067 280.954552 -0.000000 0.333632 0.472637 -0.344652
2.950000 143.559759 -272.475868 -0.000000 0.162938 0.181102 -0.099057 -18.704274 303.182313 -0.000000 0.337748 0.468793 -0.345255
2.955000 144.123454 -289.972137 -0.000000 0.157072 0.185807 -0.099471 -22.655433 327.823659 -0.000000 0.341532 0.464687 -0.345540
2.960000 143.077250 -295.422048 -0.000000 0.151511 0.190617 -0.099898 -26.738250 354.335200 -0.000000 0.345021 0.460037 -0.345971
2.965000 140.647077 -291.552779 -0.000000 0.146220 0.195686 -0.100266 -30.912090 382.159873 -0.000000 0.348356 0.454955 -0.346693
